<?xml version="1.0" standalone="no"?>
<!DOCTYPE svg PUBLIC "-//W3C//DTD SVG 20010904//EN"
 "http://www.w3.org/TR/2001/REC-SVG-20010904/DTD/svg10.dtd">
<svg version="1.0" xmlns="http://www.w3.org/2000/svg"
 width="500.000000pt" height="500.000000pt" viewBox="0 0 500.000000 500.000000"
 preserveAspectRatio="xMidYMid meet">
<metadata>
Created by potrace 1.14, written by Peter Selinger 2001-2017
</metadata>
<g transform="translate(0.000000,500.000000) scale(0.100000,-0.100000)"
fill="#000000" stroke="none">
<path d="M0 2500 l0 -2500 2500 0 2500 0 0 2500 0 2500 -2500 0 -2500 0 0
-2500z m2897 1921 c77 -36 73 6 71 -773 l-3 -692 -32 -22 c-66 -44 -182 -39
-232 11 l-26 25 -3 669 c-2 656 -3 669 -23 687 -17 16 -24 16 -55 5 -66 -24
-59 12 9 53 94 54 220 70 294 37z m-2051 -56 c28 -8 61 -26 75 -41 l24 -26 5
-611 c4 -462 8 -617 17 -634 34 -58 203 -58 350 1 100 40 128 44 137 20 12
-31 6 -74 -13 -93 -49 -49 -388 -90 -586 -71 -118 11 -167 29 -199 73 -21 28
-21 42 -26 654 -5 610 -5 625 -25 640 -39 29 -181 -7 -263 -67 -65 -47 -95
-94 -96 -150 -2 -88 49 -112 131 -64 54 31 86 26 108 -16 52 -101 -28 -210
-155 -210 -65 0 -108 18 -147 63 -42 48 -57 97 -51 171 12 144 129 267 313
331 125 43 311 57 401 30z m3351 4 c405 -55 657 -370 630 -788 -15 -227 -100
-378 -254 -448 -66 -31 -202 -42 -271 -24 -53 15 -113 67 -136 119 l-18 39
-40 -43 c-101 -109 -293 -138 -388 -57 -87 72 -106 236 -40 334 35 53 117 109
212 144 139 52 177 72 198 107 37 61 20 153 -36 197 -56 44 -211 15 -222 -42
-2 -10 11 -23 36 -36 62 -32 69 -75 22 -123 -28 -27 -36 -30 -76 -25 -52 5
-79 26 -94 73 -51 155 157 279 410 244 94 -13 137 -29 184 -70 67 -59 70 -78
76 -436 6 -360 4 -354 74 -354 112 1 211 104 262 275 24 81 25 274 0 365 -79
297 -302 450 -661 453 -138 1 -230 -20 -344 -78 -177 -88 -309 -260 -358 -463
-24 -100 -21 -294 6 -397 68 -254 245 -437 486 -500 127 -34 335 -29 444 10
37 13 39 12 50 -11 6 -14 11 -27 11 -29 0 -11 -120 -46 -197 -56 -315 -42
-626 75 -797 301 -63 83 -92 138 -127 242 -26 77 -33 114 -37 212 -6 136 7
224 49 340 51 141 135 259 247 348 193 153 432 214 699 177z m-2400 -456 c73
-34 73 -36 73 -424 0 -227 4 -357 11 -378 21 -59 71 -66 141 -22 25 16 57 44
72 63 l26 35 0 281 c0 160 -4 292 -10 307 -13 35 -37 41 -69 17 -17 -12 -33
-17 -41 -12 -19 12 61 94 123 125 96 47 221 30 271 -38 20 -27 21 -42 24 -420
2 -261 6 -395 14 -404 15 -19 42 -16 63 7 14 16 21 17 32 8 12 -9 7 -19 -29
-55 -64 -66 -129 -96 -208 -96 -108 0 -170 47 -170 129 0 24 -3 44 -6 44 -3 0
-31 -23 -62 -51 -32 -27 -89 -66 -129 -86 -146 -72 -272 -38 -330 92 -16 35
-18 82 -23 399 -5 324 -7 360 -22 370 -13 8 -24 5 -49 -13 -23 -17 -34 -20
-42 -12 -16 16 64 95 127 126 61 31 159 34 213 8z m37 -1773 c153 -11 176 -21
176 -79 0 -24 -8 -48 -19 -62 l-20 -24 -48 27 c-73 40 -155 58 -295 65 l-128
6 0 -311 0 -312 195 0 195 0 0 -45 0 -45 -195 0 -195 0 0 -303 c0 -333 0 -330
-63 -364 -43 -22 -157 -22 -191 1 -60 39 -61 43 -64 368 l-3 298 -75 0 -74 0
0 45 0 45 75 0 75 0 0 306 0 306 -42 -7 c-69 -11 -174 -51 -230 -86 -95 -61
-135 -163 -87 -223 26 -33 63 -34 111 -1 48 33 71 32 102 -6 51 -60 24 -154
-55 -197 -36 -19 -55 -23 -105 -20 -70 4 -116 30 -155 86 -21 31 -24 47 -24
126 0 81 3 96 29 143 15 28 42 65 60 81 83 81 255 151 421 171 50 6 101 13
115 15 53 7 391 5 514 -4z m2246 -305 l0 -145 99 0 c55 0 106 3 115 6 24 9 19
27 -14 46 -32 18 -38 44 -20 79 8 14 21 19 50 19 54 0 74 -31 68 -100 -9 -91
-58 -120 -203 -120 l-95 0 0 -387 c0 -434 -2 -423 71 -423 32 0 43 7 78 47 30
33 45 43 52 36 16 -16 -36 -107 -85 -149 -56 -48 -121 -67 -215 -63 -65 3 -84
8 -118 32 -22 15 -50 46 -64 70 l-24 42 -3 398 -3 397 -55 0 -54 0 0 34 c0 31
3 34 38 41 64 11 140 52 196 104 49 47 69 79 96 154 8 23 15 27 50 27 l40 0 0
-145z m-1422 -150 c89 -27 152 -97 152 -170 0 -83 -33 -113 -280 -259 l-195
-115 2 -41 c4 -94 95 -223 188 -266 92 -44 204 -25 291 49 28 24 33 25 44 11
21 -24 -90 -126 -187 -171 -69 -33 -85 -37 -182 -41 -90 -3 -116 -1 -170 18
-147 49 -256 172 -291 326 -15 65 -15 217 -1 274 39 150 139 278 271 346 105
53 254 69 358 39z m726 1 c61 -18 114 -60 132 -102 17 -41 18 -103 1 -125 -34
-45 -105 -52 -142 -14 -34 33 -31 51 10 89 19 18 35 38 35 44 0 39 -127 59
-175 28 -27 -18 -46 -73 -38 -108 9 -38 51 -87 183 -218 157 -154 185 -204
184 -320 -1 -157 -96 -256 -271 -281 -129 -18 -255 24 -352 118 -51 49 -54 54
-39 69 15 16 20 14 59 -20 72 -61 167 -77 241 -39 64 32 81 119 37 189 -13 22
-66 86 -118 144 -162 181 -203 264 -180 369 17 80 70 137 157 172 59 23 208
25 276 5z"/>
<path d="M3980 3604 c-17 -15 -39 -43 -49 -63 -41 -79 -34 -220 11 -268 44
-47 131 -18 158 52 15 38 13 278 -2 293 -22 22 -84 14 -118 -14z"/>
<path d="M2401 1574 c-41 -34 -70 -131 -78 -258 l-6 -100 39 23 c21 13 74 44
117 68 98 57 115 94 87 195 -26 92 -97 125 -159 72z"/>
</g>
</svg>
